<svg width="7" height="11" viewBox="0 0 7 11" fill="none" xmlns="http://www.w3.org/2000/svg">
<path d="M3.14614 10.854C3.19259 10.9006 3.24776 10.9375 3.30851 10.9627C3.36926 10.9879 3.43438 11.0009 3.50014 11.0009C3.56591 11.0009 3.63103 10.9879 3.69178 10.9627C3.75252 10.9375 3.8077 10.9006 3.85414 10.854L6.85414 7.854C6.94803 7.76011 7.00077 7.63278 7.00077 7.5C7.00077 7.36722 6.94803 7.23989 6.85414 7.146C6.76026 7.05211 6.63292 6.99937 6.50014 6.99937C6.36737 6.99937 6.24003 7.05211 6.14614 7.146L4.00014 9.293V0.5C4.00014 0.367392 3.94747 0.240215 3.8537 0.146447C3.75993 0.0526784 3.63275 0 3.50014 0C3.36754 0 3.24036 0.0526784 3.14659 0.146447C3.05282 0.240215 3.00014 0.367392 3.00014 0.5V9.293L0.854144 7.146C0.760257 7.05211 0.632919 6.99937 0.500144 6.99937C0.367368 6.99937 0.24003 7.05211 0.146143 7.146C0.0522568 7.23989 -0.000488281 7.36722 -0.000488281 7.5C-0.000488281 7.63278 0.0522568 7.76011 0.146143 7.854L3.14614 10.854Z" fill="#737373"/>
</svg>
